<svg width="349" height="120" viewBox="0 0 349 120" fill="none" xmlns="http://www.w3.org/2000/svg">
<path d="M214 62L201.01 43.25H226.99L214 62Z" fill="black"/>
<g filter="url(#filter0_d_448_1514)">
<path d="M39 48.5703V76.0312C37.8021 77.0729 36.2005 77.9453 34.1953 78.6484C32.1901 79.3516 29.7552 79.7031 26.8906 79.7031C24.026 79.7031 21.5911 79.0651 19.5859 77.7891C17.3203 76.4089 16.1875 74.4557 16.1875 71.9297V46.7734H7.08594C5.21094 44.0911 4.27344 41.1615 4.27344 37.9844C4.27344 35.8229 4.61198 33.9479 5.28906 32.3594C5.99219 30.7448 6.85156 29.4948 7.86719 28.6094H48.2578C49.013 29.7812 49.638 31.2005 50.1328 32.8672C50.6276 34.5339 50.875 36.1875 50.875 37.8281C50.875 40.901 50.1979 43.1667 48.8438 44.625C47.4896 46.0573 45.6667 46.7734 43.375 46.7734H31.9297C31.8516 46.9557 31.8125 47.151 31.8125 47.3594C31.8125 47.8281 32.0859 48.1406 32.6328 48.2969C33.2057 48.4792 34.4297 48.5703 36.3047 48.5703H39ZM78.6734 51.2266C78.7776 51.3047 79.0771 51.3438 79.5719 51.3438C80.0667 51.3438 80.4443 51.1484 80.7047 50.7578C80.9651 50.3672 81.0953 49.7292 81.0953 48.8438V47.4375C81.0953 46.5 80.9781 45.8359 80.7438 45.4453C80.5354 45.0286 80.1708 44.8203 79.65 44.8203C79.1552 44.8203 78.8167 44.8724 78.6344 44.9766C78.6604 45.1068 78.6734 45.3281 78.6734 45.6406V51.2266ZM98.8297 60.1328L105.588 67.0469C105.119 71.1094 103.83 74.2344 101.72 76.4219C99.637 78.6094 96.7464 79.7031 93.0484 79.7031C90.262 79.7031 87.8401 79.0391 85.7828 77.7109C83.1526 76.0443 81.1865 73.388 79.8844 69.7422L78.4781 65.9141C77.3844 65.888 76.0042 65.7448 74.3375 65.4844C74.1292 65.6927 74.025 65.9792 74.025 66.3438C74.025 67.0469 75.0797 67.4635 77.1891 67.5938L79.4156 73.2188V76.5391C76.4208 78.6484 72.5797 79.7031 67.8922 79.7031C64.5328 79.7031 61.8505 79.013 59.8453 77.6328C57.8401 76.2526 56.8375 74.2474 56.8375 71.6172V34.5078C56.8375 33.362 57.8922 32.2552 60.0016 31.1875C62.1109 30.0938 64.8714 29.2214 68.2828 28.5703C71.6943 27.8932 75.1057 27.5547 78.5172 27.5547C86.3297 27.5547 92.4365 29.1562 96.8375 32.3594C101.473 35.7188 103.791 40.4453 103.791 46.5391C103.791 50.0286 102.801 53.0234 100.822 55.5234C98.8688 57.9974 96.3948 59.7161 93.4 60.6797C93.4 61.513 93.8948 61.9297 94.8844 61.9297C95.9 61.9297 97.2151 61.3307 98.8297 60.1328ZM134.284 35.6797V76.0312C133.086 77.0729 131.485 77.9453 129.48 78.6484C127.474 79.3516 125.04 79.7031 122.175 79.7031C119.31 79.7031 116.876 79.0651 114.87 77.7891C112.605 76.4089 111.472 74.4557 111.472 71.9297V31.5781C112.67 30.5365 114.271 29.6641 116.277 28.9609C118.282 28.2578 120.704 27.9062 123.542 27.9062C126.381 27.9062 128.842 28.5312 130.925 29.7812C133.165 31.2135 134.284 33.1797 134.284 35.6797Z" fill="#FFFBF7"/>
<path d="M163.02 52.7891C163.124 52.8672 163.424 52.9062 163.919 52.9062C164.414 52.9062 164.791 52.7109 165.052 52.3203C165.312 51.9297 165.442 51.2917 165.442 50.4062V47.4375C165.442 46.5 165.325 45.8359 165.091 45.4453C164.882 45.0286 164.518 44.8203 163.997 44.8203C163.502 44.8203 163.164 44.8724 162.981 44.9766C163.007 45.1068 163.02 45.3281 163.02 45.6406V52.7891ZM163.997 70.4453V76.4219C162.851 77.3854 161.236 78.1797 159.153 78.8047C157.07 79.4036 154.895 79.7031 152.63 79.7031C149.401 79.7031 146.757 79.0781 144.7 77.8281C142.356 76.3958 141.184 74.3255 141.184 71.6172V34.5078C141.184 33.6745 141.744 32.8411 142.864 32.0078C144.01 31.1745 145.585 30.4193 147.591 29.7422C151.887 28.2839 156.796 27.5547 162.317 27.5547C169.947 27.5547 176.028 29.4557 180.559 33.2578C185.091 37.0599 187.356 42.1771 187.356 48.6094C187.356 55.0156 185.312 60.0026 181.223 63.5703C177.291 66.9557 171.835 68.6484 164.856 68.6484C163.268 68.6484 161.562 68.4661 159.739 68.1016C157.942 67.7109 156.731 67.3724 156.106 67.0859C155.898 67.2943 155.794 67.5807 155.794 67.9453C155.794 69.2734 158.528 70.1068 163.997 70.4453ZM214.53 53.3359C214.738 53.5443 215.064 53.6484 215.506 53.6484C215.949 53.6484 216.327 53.5573 216.639 53.375C215.962 49.4167 215.506 47.0729 215.272 46.3438C214.985 45.5885 214.556 45.2109 213.983 45.2109C213.722 45.2109 213.41 45.2891 213.045 45.4453L214.53 53.3359ZM206.795 65.0547C206.535 65.4193 206.405 65.7578 206.405 66.0703C206.405 66.8255 207.108 67.4635 208.514 67.9844C209.946 68.4792 211.678 68.7917 213.709 68.9219C214.048 72.6719 214.413 74.8073 214.803 75.3281C214.308 76.2917 212.941 77.2682 210.702 78.2578C208.462 79.2214 205.936 79.7031 203.123 79.7031C199.399 79.7031 196.209 78.9089 193.553 77.3203C190.897 75.7057 189.569 73.6354 189.569 71.1094C189.569 70.4323 189.634 69.8333 189.764 69.3125L198.084 32.125C200.168 30.7969 202.655 29.7552 205.545 29C208.436 28.2448 211.444 27.8672 214.569 27.8672C219.048 27.8672 222.876 28.6224 226.053 30.1328C229.673 31.8516 231.873 34.3385 232.655 37.5938L241.561 74.4297C238.853 77.9453 234.439 79.7031 228.319 79.7031C225.35 79.7031 222.837 79.1693 220.78 78.1016C218.722 77.0339 217.524 75.5104 217.186 73.5312L216.327 68.7656C217.889 68.7396 219.399 68.4401 220.858 67.8672C222.316 67.2943 223.045 66.6953 223.045 66.0703C223.045 65.6536 222.876 65.3151 222.538 65.0547C221.548 65.7578 220.337 66.2917 218.905 66.6562C217.472 67.0208 216.144 67.2031 214.92 67.2031C211.405 67.2031 208.696 66.487 206.795 65.0547ZM256.234 79.0391C253.344 79.0391 251.104 78.2708 249.516 76.7344C247.953 75.1979 247.172 72.8802 247.172 69.7812V31.5781C248.552 30.4062 250.232 29.5078 252.211 28.8828C254.216 28.2318 256.286 27.9062 258.422 27.9062C261.573 27.9062 264.242 28.6875 266.43 30.25C268.799 32.0208 269.984 34.4688 269.984 37.5938V58.9609C268.526 59.0911 267.094 59.5078 265.688 60.2109C264.281 60.888 263.578 61.5911 263.578 62.3203C263.578 62.763 263.826 63.1406 264.32 63.4531C266.898 61.2917 270.727 60.2109 275.805 60.2109H285.062C286.781 63.2318 287.641 66.3177 287.641 69.4688C287.641 71.0312 287.367 72.763 286.82 74.6641C286.273 76.5651 285.544 78.0234 284.633 79.0391H256.234Z" fill="black"/>
<path d="M314.306 64.7812C315.166 64.625 315.595 64.1953 315.595 63.4922C315.595 62.763 315.361 61.9557 314.892 61.0703C314.449 60.1589 313.785 59.2995 312.9 58.4922C310.582 56.4089 307.444 55.3672 303.486 55.3672C301.533 55.3672 299.71 55.6927 298.017 56.3438C296.22 55.4323 294.788 53.987 293.72 52.0078C292.653 50.0286 292.119 47.8932 292.119 45.6016C292.119 39.612 294.619 34.9896 299.619 31.7344C303.916 28.9479 309.215 27.5547 315.517 27.5547C320.205 27.5547 324.15 28.0625 327.353 29.0781C330.556 30.0677 333.173 31.3438 335.205 32.9062C335.804 34.625 336.103 36.4089 336.103 38.2578C336.103 40.1068 335.856 41.7865 335.361 43.2969C334.866 44.8073 334.15 46.0182 333.212 46.9297C332.327 46.2786 330.726 45.6146 328.408 44.9375C326.09 44.2604 323.981 43.9219 322.08 43.9219C320.179 43.9219 318.903 44.0391 318.252 44.2734C317.627 44.5078 317.314 44.8724 317.314 45.3672C317.314 45.6016 317.353 45.8229 317.431 46.0312C318.343 45.7969 319.515 45.6797 320.947 45.6797C326.025 45.6797 330.166 46.8776 333.369 49.2734C337.145 52.138 339.033 56.4349 339.033 62.1641C339.033 67.2161 336.989 71.4089 332.9 74.7422C328.473 78.3099 322.522 80.0938 315.048 80.0938C310.934 80.0938 307.366 79.7812 304.345 79.1562C301.324 78.5573 298.382 77.4896 295.517 75.9531C293.564 73.1146 292.587 70.237 292.587 67.3203C292.587 64.3776 293.59 61.9427 295.595 60.0156C297.601 58.0885 300.061 57.125 302.978 57.125C305.921 57.125 308.317 57.724 310.166 58.9219C312.041 60.1198 313.421 62.0729 314.306 64.7812Z" fill="#FFFBF6"/>
</g>
<circle cx="199" cy="32" r="5" fill="black"/>
<circle cx="231" cy="32" r="5" fill="black"/>
<path d="M215 63.6248C214.846 63.6254 214.694 63.6054 214.552 63.566C214.41 63.5266 214.281 63.4686 214.172 63.3952L205.107 57.2361C203.97 56.4564 203.332 55.4038 203.332 54.3069C203.332 53.21 203.97 52.1574 205.107 51.3777C206.253 50.6023 207.805 50.1669 209.423 50.1669C211.042 50.1669 212.594 50.6023 213.74 51.3777L215 52.2327L216.26 51.3777C217.406 50.6023 218.958 50.1669 220.577 50.1669C222.195 50.1669 223.747 50.6023 224.893 51.3777C226.03 52.1574 226.668 53.21 226.668 54.3069C226.668 55.4038 226.03 56.4564 224.893 57.2361L215.828 63.3952C215.719 63.4686 215.59 63.5266 215.448 63.566C215.306 63.6054 215.154 63.6254 215 63.6248Z" fill="white"/>
<path d="M223 37V36" stroke="white" stroke-width="3" stroke-linecap="round"/>
<path d="M207 37V36" stroke="white" stroke-width="3" stroke-linecap="round"/>
<path d="M214 39H215" stroke="white" stroke-width="4" stroke-linecap="round"/>
<mask id="mask0_448_1514" style="mask-type:alpha" maskUnits="userSpaceOnUse" x="189" y="27" width="53" height="53">
<path d="M214.508 53.3359C214.716 53.5443 215.042 53.6484 215.484 53.6484C215.927 53.6484 216.305 53.5573 216.617 53.375C215.94 49.4167 215.484 47.0729 215.25 46.3438C214.964 45.5885 214.534 45.2109 213.961 45.2109C213.701 45.2109 213.388 45.2891 213.023 45.4453L214.508 53.3359ZM206.773 65.0547C206.513 65.4193 206.383 65.7578 206.383 66.0703C206.383 66.8255 207.086 67.4635 208.492 67.9844C209.924 68.4792 211.656 68.7917 213.688 68.9219C214.026 72.6719 214.391 74.8073 214.781 75.3281C214.286 76.2917 212.919 77.2682 210.68 78.2578C208.44 79.2214 205.914 79.7031 203.102 79.7031C199.378 79.7031 196.188 78.9089 193.531 77.3203C190.875 75.7057 189.547 73.6354 189.547 71.1094C189.547 70.4323 189.612 69.8333 189.742 69.3125L198.062 32.125C200.146 30.7969 202.633 29.7552 205.523 29C208.414 28.2448 211.422 27.8672 214.547 27.8672C219.026 27.8672 222.854 28.6224 226.031 30.1328C229.651 31.8516 231.852 34.3385 232.633 37.5938L241.539 74.4297C238.831 77.9453 234.417 79.7031 228.297 79.7031C225.328 79.7031 222.815 79.1693 220.758 78.1016C218.701 77.0339 217.503 75.5104 217.164 73.5312L216.305 68.7656C217.867 68.7396 219.378 68.4401 220.836 67.8672C222.294 67.2943 223.023 66.6953 223.023 66.0703C223.023 65.6536 222.854 65.3151 222.516 65.0547C221.526 65.7578 220.315 66.2917 218.883 66.6562C217.451 67.0208 216.122 67.2031 214.898 67.2031C211.383 67.2031 208.674 66.487 206.773 65.0547Z" fill="#2E2929"/>
</mask>
<g mask="url(#mask0_448_1514)">
<circle cx="231" cy="45" r="6" fill="#D99090"/>
<circle cx="198" cy="44" r="6" fill="#D99090"/>
</g>
<defs>
<filter id="filter0_d_448_1514" x="0.273438" y="27.5547" width="342.759" height="60.5391" filterUnits="userSpaceOnUse" color-interpolation-filters="sRGB">
<feFlood flood-opacity="0" result="BackgroundImageFix"/>
<feColorMatrix in="SourceAlpha" type="matrix" values="0 0 0 0 0 0 0 0 0 0 0 0 0 0 0 0 0 0 127 0" result="hardAlpha"/>
<feOffset dy="4"/>
<feGaussianBlur stdDeviation="2"/>
<feComposite in2="hardAlpha" operator="out"/>
<feColorMatrix type="matrix" values="0 0 0 0 0 0 0 0 0 0 0 0 0 0 0 0 0 0 0.25 0"/>
<feBlend mode="normal" in2="BackgroundImageFix" result="effect1_dropShadow_448_1514"/>
<feBlend mode="normal" in="SourceGraphic" in2="effect1_dropShadow_448_1514" result="shape"/>
</filter>
</defs>
</svg>
