<svg width="57" height="58" viewBox="0 0 57 58" fill="none" xmlns="http://www.w3.org/2000/svg">
<g clip-path="url(#clip0_1008_1542)">
<path d="M27.5078 29.3359C27.7161 29.5443 28.0417 29.6484 28.4844 29.6484C28.9271 29.6484 29.3047 29.5573 29.6172 29.375C28.9401 25.4167 28.4844 23.0729 28.25 22.3438C27.9635 21.5885 27.5339 21.2109 26.9609 21.2109C26.7005 21.2109 26.388 21.2891 26.0234 21.4453L27.5078 29.3359ZM19.7734 41.0547C19.513 41.4193 19.3828 41.7578 19.3828 42.0703C19.3828 42.8255 20.0859 43.4635 21.4922 43.9844C22.9245 44.4792 24.6562 44.7917 26.6875 44.9219C27.026 48.6719 27.3906 50.8073 27.7812 51.3281C27.2865 52.2917 25.9193 53.2682 23.6797 54.2578C21.4401 55.2214 18.9141 55.7031 16.1016 55.7031C12.3776 55.7031 9.1875 54.9089 6.53125 53.3203C3.875 51.7057 2.54688 49.6354 2.54688 47.1094C2.54688 46.4323 2.61198 45.8333 2.74219 45.3125L11.0625 8.125C13.1458 6.79688 15.6328 5.75521 18.5234 5C21.4141 4.24479 24.4219 3.86719 27.5469 3.86719C32.026 3.86719 35.8542 4.6224 39.0312 6.13281C42.651 7.85156 44.8516 10.3385 45.6328 13.5938L54.5391 50.4297C51.8307 53.9453 47.4167 55.7031 41.2969 55.7031C38.3281 55.7031 35.8151 55.1693 33.7578 54.1016C31.7005 53.0339 30.5026 51.5104 30.1641 49.5312L29.3047 44.7656C30.8672 44.7396 32.3776 44.4401 33.8359 43.8672C35.2943 43.2943 36.0234 42.6953 36.0234 42.0703C36.0234 41.6536 35.8542 41.3151 35.5156 41.0547C34.526 41.7578 33.3151 42.2917 31.8828 42.6562C30.4505 43.0208 29.1224 43.2031 27.8984 43.2031C24.3828 43.2031 21.6745 42.487 19.7734 41.0547Z" fill="black"/>
<path d="M28 36.7998L15.0096 18.9873L40.9904 18.9873L28 36.7998Z" fill="black"/>
<ellipse cx="12" cy="7.3501" rx="5" ry="4.75" fill="black"/>
<ellipse cx="44" cy="7.3501" rx="5" ry="4.75" fill="black"/>
<path d="M28 37.3934C27.8465 37.394 27.6942 37.375 27.5521 37.3376C27.41 37.3002 27.2807 37.245 27.1717 37.1753L18.1067 31.3241C16.9696 30.5835 16.3318 29.5835 16.3318 28.5414C16.3318 27.4994 16.9696 26.4994 18.1067 25.7587C19.2526 25.0221 20.805 24.6084 22.4233 24.6084C24.0417 24.6084 25.594 25.0221 26.74 25.7587L28 26.571L29.26 25.7587C30.406 25.0221 31.9583 24.6084 33.5766 24.6084C35.195 24.6084 36.7473 25.0221 37.8933 25.7587C39.0304 26.4994 39.6682 27.4994 39.6682 28.5414C39.6682 29.5835 39.0304 30.5835 37.8933 31.3241L28.8283 37.1753C28.7193 37.245 28.59 37.3002 28.4479 37.3376C28.3057 37.375 28.1535 37.394 28 37.3934Z" fill="white"/>
<path d="M36 12.1001V11.1501" stroke="white" stroke-width="3" stroke-linecap="round"/>
<path d="M20 12.1001V11.1501" stroke="white" stroke-width="3" stroke-linecap="round"/>
<path d="M27 14H28" stroke="white" stroke-width="4" stroke-linecap="round"/>
<mask id="mask0_1008_1542" style="mask-type:alpha" maskUnits="userSpaceOnUse" x="2" y="3" width="53" height="53">
<path d="M27.5078 29.3359C27.7161 29.5443 28.0417 29.6484 28.4844 29.6484C28.9271 29.6484 29.3047 29.5573 29.6172 29.375C28.9401 25.4167 28.4844 23.0729 28.25 22.3438C27.9635 21.5885 27.5339 21.2109 26.9609 21.2109C26.7005 21.2109 26.388 21.2891 26.0234 21.4453L27.5078 29.3359ZM19.7734 41.0547C19.513 41.4193 19.3828 41.7578 19.3828 42.0703C19.3828 42.8255 20.0859 43.4635 21.4922 43.9844C22.9245 44.4792 24.6562 44.7917 26.6875 44.9219C27.026 48.6719 27.3906 50.8073 27.7812 51.3281C27.2865 52.2917 25.9193 53.2682 23.6797 54.2578C21.4401 55.2214 18.9141 55.7031 16.1016 55.7031C12.3776 55.7031 9.1875 54.9089 6.53125 53.3203C3.875 51.7057 2.54688 49.6354 2.54688 47.1094C2.54688 46.4323 2.61198 45.8333 2.74219 45.3125L11.0625 8.125C13.1458 6.79688 15.6328 5.75521 18.5234 5C21.4141 4.24479 24.4219 3.86719 27.5469 3.86719C32.026 3.86719 35.8542 4.6224 39.0312 6.13281C42.651 7.85156 44.8516 10.3385 45.6328 13.5938L54.5391 50.4297C51.8307 53.9453 47.4167 55.7031 41.2969 55.7031C38.3281 55.7031 35.8151 55.1693 33.7578 54.1016C31.7005 53.0339 30.5026 51.5104 30.1641 49.5312L29.3047 44.7656C30.8672 44.7396 32.3776 44.4401 33.8359 43.8672C35.2943 43.2943 36.0234 42.6953 36.0234 42.0703C36.0234 41.6536 35.8542 41.3151 35.5156 41.0547C34.526 41.7578 33.3151 42.2917 31.8828 42.6562C30.4505 43.0208 29.1224 43.2031 27.8984 43.2031C24.3828 43.2031 21.6745 42.487 19.7734 41.0547Z" fill="black"/>
</mask>
<g mask="url(#mask0_1008_1542)">
<ellipse cx="43" cy="17.8001" rx="6" ry="5.7" fill="#D99090"/>
<ellipse cx="11" cy="17.8001" rx="6" ry="5.7" fill="#D99090"/>
</g>
</g>
<defs>
<clipPath id="clip0_1008_1542">
<rect width="57" height="58" fill="white"/>
</clipPath>
</defs>
</svg>
