<svg width="52" height="84" viewBox="0 0 52 84" fill="none" xmlns="http://www.w3.org/2000/svg">
<g filter="url(#filter0_f_1026_1579)">
<path d="M38.1257 3.97165C34.7501 0.965892 29.7299 1.50654 26.6316 4.84698L25.4181 6.15355L24.2047 4.84698C21.1125 1.50654 16.0861 0.965892 12.7106 3.97165C8.84227 7.4215 8.639 13.6132 12.1008 17.3527L24.0199 30.2125C24.7898 31.0427 26.0403 31.0427 26.8102 30.2125L38.7293 17.3527C42.1972 13.6132 41.994 7.4215 38.1257 3.97165Z" fill="#F94747"/>
</g>
<mask id="mask0_1026_1579" style="mask-type:luminance" maskUnits="userSpaceOnUse" x="0" y="31" width="53" height="53">
<path d="M52.0001 31.7363H0.637451V84.0001H52.0001V31.7363Z" fill="white"/>
</mask>
<g mask="url(#mask0_1026_1579)">
<path d="M25.4246 58.1705C25.6123 58.3583 25.9057 58.4521 26.3046 58.4521C26.7036 58.4521 27.0438 58.37 27.3254 58.2058C26.7153 54.6389 26.3046 52.5269 26.0934 51.87C25.8353 51.1894 25.4481 50.8491 24.9318 50.8491C24.6972 50.8491 24.4156 50.9196 24.087 51.0603L25.4246 58.1705ZM18.4552 68.7303C18.2205 69.0589 18.1032 69.3639 18.1032 69.6455C18.1032 70.326 18.7368 70.9009 20.004 71.3703C21.2946 71.8161 22.8551 72.0977 24.6855 72.2151C24.9905 75.5942 25.319 77.5184 25.671 77.9877C25.2252 78.856 23.9932 79.7359 21.9751 80.6276C19.957 81.4959 17.6809 81.93 15.1465 81.93C11.7908 81.93 8.91623 81.2143 6.52268 79.7828C4.12914 78.3279 2.93237 76.4624 2.93237 74.1862C2.93237 73.5761 2.99103 73.0363 3.10837 72.567L10.6058 39.0574C12.483 37.8606 14.7241 36.922 17.3288 36.2415C19.9336 35.561 22.6439 35.2207 25.4599 35.2207C29.496 35.2207 32.9456 35.9012 35.8084 37.2623C39.0702 38.811 41.0531 41.052 41.757 43.9853L49.7825 77.1781C47.342 80.346 43.3645 81.93 37.85 81.93C35.1748 81.93 32.9103 81.449 31.0565 80.4869C29.2027 79.5248 28.1232 78.1519 27.8182 76.3685L27.0438 72.0742C28.4518 72.0508 29.8128 71.7809 31.1269 71.2647C32.441 70.7484 33.098 70.2087 33.098 69.6455C33.098 69.27 32.9456 68.965 32.6404 68.7303C31.7487 69.3639 30.6576 69.845 29.3669 70.1734C28.0763 70.502 26.8795 70.6662 25.7766 70.6662C22.6087 70.6662 20.1682 70.021 18.4552 68.7303Z" fill="black"/>
<path d="M25.8681 64.8965L14.1625 48.8457H37.5737L25.8681 64.8965Z" fill="black"/>
<path d="M11.4506 42.6395C13.9389 42.6395 15.9561 40.7232 15.9561 38.3593C15.9561 35.9954 13.9389 34.0791 11.4506 34.0791C8.96225 34.0791 6.94507 35.9954 6.94507 38.3593C6.94507 40.7232 8.96225 42.6395 11.4506 42.6395Z" fill="black"/>
<path d="M40.2856 42.6395C42.774 42.6395 44.7911 40.7232 44.7911 38.3593C44.7911 35.9954 42.774 34.0791 40.2856 34.0791C37.7973 34.0791 35.7802 35.9954 35.7802 38.3593C35.7802 40.7232 37.7973 42.6395 40.2856 42.6395Z" fill="black"/>
<path d="M25.8682 65.4317C25.7299 65.4322 25.5926 65.4151 25.4646 65.3814C25.3366 65.3477 25.22 65.298 25.1218 65.2352L16.9534 59.9626C15.9287 59.2953 15.354 58.3942 15.354 57.4552C15.354 56.5162 15.9287 55.6151 16.9534 54.9477C17.9859 54.2839 19.3848 53.9111 20.843 53.9111C22.3014 53.9111 23.7002 54.2839 24.7328 54.9477L25.8682 55.6796L27.0036 54.9477C28.0362 54.2839 29.435 53.9111 30.8933 53.9111C32.3516 53.9111 33.7504 54.2839 34.783 54.9477C35.8077 55.6151 36.3824 56.5162 36.3824 57.4552C36.3824 58.3942 35.8077 59.2953 34.783 59.9626L26.6146 65.2352C26.5164 65.298 26.3999 65.3477 26.2718 65.3814C26.1437 65.4151 26.0065 65.4322 25.8682 65.4317Z" fill="white"/>
<path d="M33.0769 42.6397V41.7837" stroke="white" stroke-width="3" stroke-linecap="round"/>
<path d="M18.6594 42.6397V41.7837" stroke="white" stroke-width="3" stroke-linecap="round"/>
<path d="M24.967 44.3516H25.8681" stroke="white" stroke-width="4" stroke-linecap="round"/>
<mask id="mask1_1026_1579" style="mask-type:alpha" maskUnits="userSpaceOnUse" x="2" y="35" width="48" height="47">
<path d="M25.4246 58.1705C25.6123 58.3583 25.9057 58.4521 26.3046 58.4521C26.7036 58.4521 27.0438 58.37 27.3254 58.2058C26.7153 54.6389 26.3046 52.5269 26.0934 51.87C25.8353 51.1894 25.4481 50.8491 24.9318 50.8491C24.6972 50.8491 24.4156 50.9196 24.087 51.0603L25.4246 58.1705ZM18.4552 68.7303C18.2205 69.0589 18.1032 69.3639 18.1032 69.6455C18.1032 70.326 18.7368 70.9009 20.004 71.3703C21.2946 71.8161 22.8551 72.0977 24.6855 72.2151C24.9905 75.5942 25.319 77.5184 25.671 77.9877C25.2252 78.856 23.9932 79.7359 21.9751 80.6276C19.957 81.4959 17.6809 81.93 15.1465 81.93C11.7908 81.93 8.91623 81.2143 6.52268 79.7828C4.12914 78.3279 2.93237 76.4624 2.93237 74.1862C2.93237 73.5761 2.99103 73.0363 3.10837 72.567L10.6058 39.0574C12.483 37.8606 14.7241 36.922 17.3288 36.2415C19.9336 35.561 22.6439 35.2207 25.4599 35.2207C29.496 35.2207 32.9456 35.9012 35.8084 37.2623C39.0702 38.811 41.0531 41.052 41.757 43.9853L49.7825 77.1781C47.342 80.346 43.3645 81.93 37.85 81.93C35.1748 81.93 32.9103 81.449 31.0565 80.4869C29.2027 79.5248 28.1232 78.1519 27.8182 76.3685L27.0438 72.0742C28.4518 72.0508 29.8128 71.7809 31.1269 71.2647C32.441 70.7484 33.098 70.2087 33.098 69.6455C33.098 69.27 32.9456 68.965 32.6404 68.7303C31.7487 69.3639 30.6576 69.845 29.3669 70.1734C28.0763 70.502 26.8795 70.6662 25.7766 70.6662C22.6087 70.6662 20.1682 70.021 18.4552 68.7303Z" fill="black"/>
</mask>
<g mask="url(#mask1_1026_1579)">
<path d="M39.3846 52.9122C42.3706 52.9122 44.7912 50.6126 44.7912 47.7759C44.7912 44.9392 42.3706 42.6396 39.3846 42.6396C36.3986 42.6396 33.978 44.9392 33.978 47.7759C33.978 50.6126 36.3986 52.9122 39.3846 52.9122Z" fill="#D99090"/>
<path d="M10.5495 52.9122C13.5355 52.9122 15.9561 50.6126 15.9561 47.7759C15.9561 44.9392 13.5355 42.6396 10.5495 42.6396C7.56356 42.6396 5.14294 44.9392 5.14294 47.7759C5.14294 50.6126 7.56356 52.9122 10.5495 52.9122Z" fill="#D99090"/>
</g>
</g>
<defs>
<filter id="filter0_f_1026_1579" x="7.64844" y="0" width="35.5385" height="32.835" filterUnits="userSpaceOnUse" color-interpolation-filters="sRGB">
<feFlood flood-opacity="0" result="BackgroundImageFix"/>
<feBlend mode="normal" in="SourceGraphic" in2="BackgroundImageFix" result="shape"/>
<feGaussianBlur stdDeviation="1" result="effect1_foregroundBlur_1026_1579"/>
</filter>
</defs>
</svg>
