<svg width="58" height="120" viewBox="0 0 58 120" fill="none" xmlns="http://www.w3.org/2000/svg">
<path d="M25.5078 53.3359C25.7161 53.5443 26.0417 53.6484 26.4844 53.6484C26.9271 53.6484 27.3047 53.5573 27.6172 53.375C26.9401 49.4167 26.4844 47.0729 26.25 46.3438C25.9635 45.5885 25.5339 45.2109 24.9609 45.2109C24.7005 45.2109 24.388 45.2891 24.0234 45.4453L25.5078 53.3359ZM17.7734 65.0547C17.513 65.4193 17.3828 65.7578 17.3828 66.0703C17.3828 66.8255 18.0859 67.4635 19.4922 67.9844C20.9245 68.4792 22.6562 68.7917 24.6875 68.9219C25.026 72.6719 25.3906 74.8073 25.7812 75.3281C25.2865 76.2917 23.9193 77.2682 21.6797 78.2578C19.4401 79.2214 16.9141 79.7031 14.1016 79.7031C10.3776 79.7031 7.1875 78.9089 4.53125 77.3203C1.875 75.7057 0.546875 73.6354 0.546875 71.1094C0.546875 70.4323 0.611979 69.8333 0.742188 69.3125L9.0625 32.125C11.1458 30.7969 13.6328 29.7552 16.5234 29C19.4141 28.2448 22.4219 27.8672 25.5469 27.8672C30.026 27.8672 33.8542 28.6224 37.0312 30.1328C40.651 31.8516 42.8516 34.3385 43.6328 37.5938L52.5391 74.4297C49.8307 77.9453 45.4167 79.7031 39.2969 79.7031C36.3281 79.7031 33.8151 79.1693 31.7578 78.1016C29.7005 77.0339 28.5026 75.5104 28.1641 73.5312L27.3047 68.7656C28.8672 68.7396 30.3776 68.4401 31.8359 67.8672C33.2943 67.2943 34.0234 66.6953 34.0234 66.0703C34.0234 65.6536 33.8542 65.3151 33.5156 65.0547C32.526 65.7578 31.3151 66.2917 29.8828 66.6562C28.4505 67.0208 27.1224 67.2031 25.8984 67.2031C22.3828 67.2031 19.6745 66.487 17.7734 65.0547Z" fill="black"/>
<path d="M26 64L13.0096 45.25H38.9904L26 64Z" fill="black"/>
<circle cx="10" cy="33" r="5" fill="black"/>
<circle cx="42" cy="33" r="5" fill="black"/>
<path d="M26 64.6249C25.8465 64.6255 25.6942 64.6056 25.5521 64.5662C25.41 64.5268 25.2807 64.4687 25.1717 64.3953L16.1067 58.2362C14.9696 57.4565 14.3318 56.4039 14.3318 55.307C14.3318 54.2101 14.9696 53.1575 16.1067 52.3779C17.2526 51.6024 18.805 51.167 20.4233 51.167C22.0417 51.167 23.594 51.6024 24.74 52.3779L26 53.2329L27.26 52.3779C28.406 51.6024 29.9583 51.167 31.5766 51.167C33.195 51.167 34.7473 51.6024 35.8933 52.3779C37.0304 53.1575 37.6682 54.2101 37.6682 55.307C37.6682 56.4039 37.0304 57.4565 35.8933 58.2362L26.8283 64.3953C26.7193 64.4687 26.59 64.5268 26.4479 64.5662C26.3057 64.6056 26.1535 64.6255 26 64.6249Z" fill="white"/>
<path d="M34 38V37" stroke="white" stroke-width="3" stroke-linecap="round"/>
<path d="M18 38V37" stroke="white" stroke-width="3" stroke-linecap="round"/>
<path d="M25 40H26" stroke="white" stroke-width="4" stroke-linecap="round"/>
<mask id="mask0_442_1419" style="mask-type:alpha" maskUnits="userSpaceOnUse" x="0" y="27" width="53" height="53">
<path d="M25.5078 53.3359C25.7161 53.5443 26.0417 53.6484 26.4844 53.6484C26.9271 53.6484 27.3047 53.5573 27.6172 53.375C26.9401 49.4167 26.4844 47.0729 26.25 46.3438C25.9635 45.5885 25.5339 45.2109 24.9609 45.2109C24.7005 45.2109 24.388 45.2891 24.0234 45.4453L25.5078 53.3359ZM17.7734 65.0547C17.513 65.4193 17.3828 65.7578 17.3828 66.0703C17.3828 66.8255 18.0859 67.4635 19.4922 67.9844C20.9245 68.4792 22.6562 68.7917 24.6875 68.9219C25.026 72.6719 25.3906 74.8073 25.7812 75.3281C25.2865 76.2917 23.9193 77.2682 21.6797 78.2578C19.4401 79.2214 16.9141 79.7031 14.1016 79.7031C10.3776 79.7031 7.1875 78.9089 4.53125 77.3203C1.875 75.7057 0.546875 73.6354 0.546875 71.1094C0.546875 70.4323 0.611979 69.8333 0.742188 69.3125L9.0625 32.125C11.1458 30.7969 13.6328 29.7552 16.5234 29C19.4141 28.2448 22.4219 27.8672 25.5469 27.8672C30.026 27.8672 33.8542 28.6224 37.0312 30.1328C40.651 31.8516 42.8516 34.3385 43.6328 37.5938L52.5391 74.4297C49.8307 77.9453 45.4167 79.7031 39.2969 79.7031C36.3281 79.7031 33.8151 79.1693 31.7578 78.1016C29.7005 77.0339 28.5026 75.5104 28.1641 73.5312L27.3047 68.7656C28.8672 68.7396 30.3776 68.4401 31.8359 67.8672C33.2943 67.2943 34.0234 66.6953 34.0234 66.0703C34.0234 65.6536 33.8542 65.3151 33.5156 65.0547C32.526 65.7578 31.3151 66.2917 29.8828 66.6562C28.4505 67.0208 27.1224 67.2031 25.8984 67.2031C22.3828 67.2031 19.6745 66.487 17.7734 65.0547Z" fill="black"/>
</mask>
<g mask="url(#mask0_442_1419)">
<circle cx="41" cy="44" r="6" fill="#D99090"/>
<circle cx="9" cy="44" r="6" fill="#D99090"/>
</g>
</svg>
