<svg width="58" height="120" viewBox="0 0 58 120" fill="none" xmlns="http://www.w3.org/2000/svg">
<path d="M9.0625 32.125C10.0781 31.474 11.224 30.888 12.5 30.3672C13.776 29.8203 15.1172 29.3646 16.5234 29C17.9557 28.6354 19.4271 28.362 20.9375 28.1797C22.474 27.9714 24.0104 27.8672 25.5469 27.8672C27.5781 27.8672 29.5833 28.0495 31.5625 28.4141C33.5677 28.7786 35.3906 29.3516 37.0312 30.1328C38.6719 30.9141 40.0781 31.9297 41.25 33.1797C42.4219 34.4036 43.2161 35.875 43.6328 37.5938L52.5391 74.4297C51.3411 75.9661 49.6615 77.2292 47.5 78.2188C45.3385 79.2083 42.6042 79.7031 39.2969 79.7031C37.8385 79.7031 36.4714 79.5729 35.1953 79.3125C33.9193 79.0521 32.7865 78.6745 31.7969 78.1797C30.8333 77.6589 30.026 77.0208 29.375 76.2656C28.75 75.4844 28.3464 74.5729 28.1641 73.5312L27.3047 68.7656C28.112 68.7396 28.9062 68.6484 29.6875 68.4922C30.4948 68.3099 31.2109 68.1016 31.8359 67.8672C32.487 67.6068 33.0078 67.3203 33.3984 67.0078C33.8151 66.6953 34.0234 66.3828 34.0234 66.0703C34.0234 65.6536 33.8542 65.3151 33.5156 65.0547C33.0469 65.3932 32.5 65.7057 31.875 65.9922C31.25 66.2526 30.5859 66.474 29.8828 66.6562C29.2057 66.8385 28.5156 66.9818 27.8125 67.0859C27.1354 67.1641 26.4974 67.2031 25.8984 67.2031C24.7786 67.2031 23.776 67.138 22.8906 67.0078C22.0312 66.8516 21.276 66.6693 20.625 66.4609C19.974 66.2526 19.4141 66.0312 18.9453 65.7969C18.4766 65.5365 18.0859 65.2891 17.7734 65.0547C17.6693 65.1849 17.5781 65.3411 17.5 65.5234C17.4219 65.6797 17.3828 65.862 17.3828 66.0703C17.3828 66.4609 17.5781 66.8255 17.9688 67.1641C18.3854 67.4766 18.9323 67.763 19.6094 68.0234C20.2865 68.2578 21.0547 68.4531 21.9141 68.6094C22.7995 68.7656 23.724 68.8698 24.6875 68.9219C24.8438 70.7448 25.013 72.2031 25.1953 73.2969C25.4036 74.3646 25.599 75.0417 25.7812 75.3281C25.5469 75.7708 25.0781 76.2526 24.375 76.7734C23.6979 77.2682 22.8385 77.737 21.7969 78.1797C20.7812 78.6224 19.6094 78.987 18.2812 79.2734C16.9792 79.5599 15.5859 79.7031 14.1016 79.7031C12.2526 79.7031 10.5078 79.4948 8.86719 79.0781C7.22656 78.6615 5.79427 78.0885 4.57031 77.3594C3.34635 76.6042 2.36979 75.7057 1.64062 74.6641C0.911458 73.5964 0.546875 72.4115 0.546875 71.1094C0.546875 70.8229 0.559896 70.5365 0.585938 70.25C0.611979 69.9375 0.664062 69.625 0.742188 69.3125L9.0625 32.125ZM27.4219 52.2422C27.1354 50.6797 26.901 49.4297 26.7188 48.4922C26.5625 47.5547 26.3932 46.8516 26.2109 46.3828C26.0547 45.888 25.8724 45.5755 25.6641 45.4453C25.4818 45.2891 25.2474 45.2109 24.9609 45.2109C24.7786 45.2109 24.6094 45.237 24.4531 45.2891C24.2969 45.3411 24.1536 45.3932 24.0234 45.4453L25.5078 53.3359C25.612 53.4401 25.7552 53.5182 25.9375 53.5703C26.1458 53.6224 26.3281 53.6484 26.4844 53.6484C26.7188 53.6484 26.9401 53.6224 27.1484 53.5703C27.3568 53.4922 27.513 53.4271 27.6172 53.375L27.4219 52.2422Z" fill="#578F52"/>
<path d="M26 64L13.0096 45.25H38.9904L26 64Z" fill="#578F52"/>
<circle cx="10" cy="33" r="5" fill="#578F52"/>
<circle cx="42" cy="33" r="5" fill="#578F52"/>
<path d="M26 64.6249C25.8465 64.6255 25.6942 64.6056 25.5521 64.5662C25.41 64.5268 25.2807 64.4687 25.1717 64.3953L16.1067 58.2362C14.9696 57.4565 14.3318 56.4039 14.3318 55.307C14.3318 54.2101 14.9696 53.1575 16.1067 52.3779C17.2526 51.6024 18.805 51.167 20.4233 51.167C22.0417 51.167 23.594 51.6024 24.74 52.3779L26 53.2329L27.26 52.3779C28.406 51.6024 29.9583 51.167 31.5766 51.167C33.195 51.167 34.7473 51.6024 35.8933 52.3779C37.0304 53.1575 37.6682 54.2101 37.6682 55.307C37.6682 56.4039 37.0304 57.4565 35.8933 58.2362L26.8283 64.3953C26.7193 64.4687 26.59 64.5268 26.4479 64.5662C26.3057 64.6056 26.1535 64.6255 26 64.6249Z" fill="white"/>
<path d="M34 38V37" stroke="white" stroke-width="3" stroke-linecap="round"/>
<path d="M18 38V37" stroke="white" stroke-width="3" stroke-linecap="round"/>
<path d="M25 40H26" stroke="white" stroke-width="4" stroke-linecap="round"/>
<mask id="mask0_699_1574" style="mask-type:alpha" maskUnits="userSpaceOnUse" x="0" y="27" width="53" height="53">
<path d="M25.5078 53.3359C25.7161 53.5443 26.0417 53.6484 26.4844 53.6484C26.9271 53.6484 27.3047 53.5573 27.6172 53.375C26.9401 49.4167 26.4844 47.0729 26.25 46.3438C25.9635 45.5885 25.5339 45.2109 24.9609 45.2109C24.7005 45.2109 24.388 45.2891 24.0234 45.4453L25.5078 53.3359ZM17.7734 65.0547C17.513 65.4193 17.3828 65.7578 17.3828 66.0703C17.3828 66.8255 18.0859 67.4635 19.4922 67.9844C20.9245 68.4792 22.6562 68.7917 24.6875 68.9219C25.026 72.6719 25.3906 74.8073 25.7812 75.3281C25.2865 76.2917 23.9193 77.2682 21.6797 78.2578C19.4401 79.2214 16.9141 79.7031 14.1016 79.7031C10.3776 79.7031 7.1875 78.9089 4.53125 77.3203C1.875 75.7057 0.546875 73.6354 0.546875 71.1094C0.546875 70.4323 0.611979 69.8333 0.742188 69.3125L9.0625 32.125C11.1458 30.7969 13.6328 29.7552 16.5234 29C19.4141 28.2448 22.4219 27.8672 25.5469 27.8672C30.026 27.8672 33.8542 28.6224 37.0312 30.1328C40.651 31.8516 42.8516 34.3385 43.6328 37.5938L52.5391 74.4297C49.8307 77.9453 45.4167 79.7031 39.2969 79.7031C36.3281 79.7031 33.8151 79.1693 31.7578 78.1016C29.7005 77.0339 28.5026 75.5104 28.1641 73.5312L27.3047 68.7656C28.8672 68.7396 30.3776 68.4401 31.8359 67.8672C33.2943 67.2943 34.0234 66.6953 34.0234 66.0703C34.0234 65.6536 33.8542 65.3151 33.5156 65.0547C32.526 65.7578 31.3151 66.2917 29.8828 66.6562C28.4505 67.0208 27.1224 67.2031 25.8984 67.2031C22.3828 67.2031 19.6745 66.487 17.7734 65.0547Z" fill="black"/>
</mask>
<g mask="url(#mask0_699_1574)">
<circle cx="41" cy="44" r="6" fill="#FF9292"/>
<path d="M15 44C15 47.3137 12.3137 50 9 50C5.68629 50 3 47.3137 3 44C3 40.6863 5.68629 38 9 38C12.3137 38 15 40.6863 15 44Z" fill="#FF9292"/>
</g>
<path d="M35.6705 51.9573C33.1018 50.4979 29.2815 50.7604 26.9238 52.3823L26.0003 53.0166L25.0769 52.3823C22.7238 50.7604 18.8989 50.4979 16.3302 51.9573C13.3865 53.6322 13.2318 56.6384 15.8662 58.454L24.9363 64.6977C25.5222 65.1008 26.4738 65.1008 27.0597 64.6977L36.1298 58.454C38.7688 56.6384 38.6142 53.6322 35.6705 51.9573Z" fill="#F94747"/>
</svg>
